<svg xmlns="http://www.w3.org/2000/svg" width="565" height="1012" viewBox="0 0 565 1012">
  <g id="Group_121" data-name="Group 121" transform="translate(-51 60)">
    <g id="base_02" data-name="base 02">
      <path id="Path_197" data-name="Path 197" d="M234.5,434.167v-9.412l2.917-8,6.167-5,8.583-1.671H258v8.667h-8.167l-7.25,4.5-.833,2.662v7.5Z" fill="#54e9dc"/>
      <path id="Path_198" data-name="Path 198" d="M138.966,421.255v20.5L146.329,458l14.833,9.5,23.167,4.5,8-.25L193,449.177l-25.667-2.923L157.662,435,156,420.333Z" fill="#54e9dc"/>
      <rect id="Rectangle_34915" data-name="Rectangle 34915" width="97.08" height="7.75" transform="translate(255.249 410.75)" fill="#54e9dc"/>
      <rect id="Rectangle_34916" data-name="Rectangle 34916" width="162.667" height="17.245" transform="translate(189.662 450.255)" fill="#54e9dc"/>
      <g id="Group_47" data-name="Group 47">
        <rect id="Rectangle_34917" data-name="Rectangle 34917" width="62" height="22" transform="translate(426 631) rotate(90)" fill="#f6f6f6"/>
        <line id="Line_1" data-name="Line 1" x1="7.878" transform="translate(411.061 652.763)" fill="#f6f6f6" stroke="#2f9bff" stroke-miterlimit="10" stroke-width="1.5"/>
        <path id="Path_199" data-name="Path 199" d="M404,631v62h22V631Zm1.5,1.5h19v59h-19Z" fill="#2f9bff"/>
      </g>
      <g id="Group_48" data-name="Group 48">
        <rect id="Rectangle_34918" data-name="Rectangle 34918" width="62" height="22" transform="translate(446.5 631) rotate(90)" fill="#f6f6f6"/>
        <line id="Line_2" data-name="Line 2" x1="7.878" transform="translate(431.561 652.763)" fill="#f6f6f6" stroke="#2f9bff" stroke-miterlimit="10" stroke-width="1.5"/>
        <path id="Path_200" data-name="Path 200" d="M424.5,631v62h22V631Zm1.5,1.5h19v59H426Z" fill="#2f9bff"/>
      </g>
      <g id="Group_49" data-name="Group 49">
        <rect id="Rectangle_34919" data-name="Rectangle 34919" width="62" height="22" transform="translate(467 631) rotate(90)" fill="#f6f6f6"/>
        <line id="Line_3" data-name="Line 3" x1="7.878" transform="translate(452.061 652.763)" fill="#f6f6f6" stroke="#2f9bff" stroke-miterlimit="10" stroke-width="1.5"/>
        <path id="Path_201" data-name="Path 201" d="M445,631v62h22V631Zm1.5,1.5h19v59h-19Z" fill="#2f9bff"/>
      </g>
      <g id="Group_61" data-name="Group 61">
        <circle id="Ellipse_216" data-name="Ellipse 216" cx="22.5" cy="22.5" r="22.5" transform="translate(99 589)" fill="#f6f6f6"/>
        <g id="Group_50" data-name="Group 50">
          <path id="Path_202" data-name="Path 202" d="M121.5,634A22.5,22.5,0,1,0,99,611.5,22.5,22.5,0,0,0,121.5,634Zm0-43.5a21,21,0,1,1-21,21A21.024,21.024,0,0,1,121.5,590.5Z" fill="#2f9bff"/>
          <circle id="Ellipse_217" data-name="Ellipse 217" cx="18.017" cy="18.017" r="18.017" transform="translate(103.483 593.483)" fill="none" stroke="#2f9bff" stroke-miterlimit="10" stroke-width="1.5"/>
          <circle id="Ellipse_218" data-name="Ellipse 218" cx="5.201" cy="5.201" r="5.201" transform="translate(109.298 613.286)" fill="none" stroke="#2f9bff" stroke-miterlimit="10" stroke-width="1.5"/>
          <circle id="Ellipse_219" data-name="Ellipse 219" cx="5.201" cy="5.201" r="5.201" transform="translate(123.742 613.286)" fill="none" stroke="#2f9bff" stroke-miterlimit="10" stroke-width="1.5"/>
          <circle id="Ellipse_220" data-name="Ellipse 220" cx="5.201" cy="5.201" r="5.201" transform="translate(109.298 598.842)" fill="none" stroke="#2f9bff" stroke-miterlimit="10" stroke-width="1.5"/>
        </g>
        <g id="Group_51" data-name="Group 51">
          <path id="Path_203" data-name="Path 203" d="M112.38,601.917l-.017-.018,25.142-24.967A21.763,21.763,0,0,1,152.441,571H262.876v6H152.441a15.687,15.687,0,0,0-10.768,4.247l-24.871,24.7c-.062.075-.114.155-.184.225a3,3,0,1,1-4.238-4.253Z" fill="#f6f6f6"/>
          <path id="Path_204" data-name="Path 204" d="M112.372,606.162a3,3,0,0,0,4.246.008c.07-.07.122-.15.184-.225l24.871-24.7A15.687,15.687,0,0,1,152.441,577H262.876v-6H152.441a21.763,21.763,0,0,0-14.936,5.932L112.363,601.9l.017.018A3.007,3.007,0,0,0,112.372,606.162Zm1.066-3.183.944-.972,24.149-23.982A20.276,20.276,0,0,1,152.44,572.5H261.376v3H152.44a17.2,17.2,0,0,0-11.824,4.683l-24.923,24.749-.132.173a1.5,1.5,0,0,1-2.125,0A1.506,1.506,0,0,1,113.438,602.979Z" fill="#2f9bff"/>
        </g>
        <g id="Group_52" data-name="Group 52">
          <path id="Path_205" data-name="Path 205" d="M112.381,616.36c.06-.06.131-.106.195-.16l51.629-51.268A21.763,21.763,0,0,1,179.14,559h52.436v6H179.14a15.686,15.686,0,0,0-10.767,4.247l-51.738,51.379-.015-.014,0,0a3,3,0,1,1-4.237-4.255Z" fill="#f6f6f6"/>
          <path id="Path_206" data-name="Path 206" d="M112.372,620.606a3,3,0,0,0,4.246.009l0,0,.015.014,51.738-51.379A15.686,15.686,0,0,1,179.14,565h52.436v-6H179.14a21.763,21.763,0,0,0-14.935,5.932L112.576,616.2c-.064.054-.135.1-.195.16A3.007,3.007,0,0,0,112.372,620.606Zm1.041-3.155.175-.14,51.643-51.286A20.274,20.274,0,0,1,179.14,560.5h50.936v3H179.14a17.2,17.2,0,0,0-11.824,4.683l-50.677,50.326-.019-.019-1.1,1.1a1.506,1.506,0,0,1-2.085-.041A1.5,1.5,0,0,1,113.413,617.451Z" fill="#2f9bff"/>
        </g>
        <g id="Group_53" data-name="Group 53">
          <path id="Path_207" data-name="Path 207" d="M126.826,616.36c.009-.01.021-.017.032-.027l63.847-63.4A21.763,21.763,0,0,1,205.64,547h42.436v6H205.64a15.686,15.686,0,0,0-10.767,4.247l-63.811,63.368a3,3,0,1,1-4.236-4.255Z" fill="#f6f6f6"/>
          <path id="Path_208" data-name="Path 208" d="M126.817,620.606a3,3,0,0,0,4.245.009l63.811-63.368A15.686,15.686,0,0,1,205.64,553h42.436v-6H205.64a21.763,21.763,0,0,0-14.935,5.932l-63.847,63.4c-.011.01-.023.017-.032.027A3.006,3.006,0,0,0,126.817,620.606Zm1.018-3.128,63.9-63.453A20.274,20.274,0,0,1,205.64,548.5h40.936v3H205.64a17.2,17.2,0,0,0-11.824,4.683L130,619.552a1.494,1.494,0,0,1-1.06.437,1.469,1.469,0,0,1-1.063-.44A1.516,1.516,0,0,1,127.835,617.478Z" fill="#2f9bff"/>
        </g>
        <g id="Group_54" data-name="Group 54">
          <rect id="Rectangle_34920" data-name="Rectangle 34920" width="13.25" height="6.25" transform="translate(271.253 577.618) rotate(-180)" fill="#f6f6f6" stroke="#2f9bff" stroke-miterlimit="10" stroke-width="1.5"/>
          <line id="Line_4" data-name="Line 4" y2="6.25" transform="translate(264.628 571.368)" fill="none" stroke="#2f9bff" stroke-miterlimit="10" stroke-width="1.5"/>
        </g>
        <g id="Group_55" data-name="Group 55">
          <path id="Path_209" data-name="Path 209" d="M345.224,559a21.765,21.765,0,0,1,14.936,5.932l25.634,25.455h0L411.788,616.2c.065.054.136.1.2.16s.1.124.152.185l25.287,25.111c.064.054.135.1.2.16a3,3,0,0,1-4.237,4.255l0,0-.014.015L407.73,620.626h0l-51.738-51.379A15.689,15.689,0,0,0,345.224,565H234.788v-6Z" fill="#f6f6f6"/>
          <path id="Path_210" data-name="Path 210" d="M234.788,559v6H345.224a15.689,15.689,0,0,1,10.768,4.247l51.738,51.379h0l25.635,25.456.014-.015,0,0a3,3,0,0,0,4.237-4.255c-.061-.06-.132-.106-.2-.16l-51.629-51.269h0L360.16,564.932A21.765,21.765,0,0,0,345.224,559Zm1.5,1.5H345.224a20.272,20.272,0,0,1,13.909,5.525l51.644,51.286h0l25.634,25.456.175.141a1.5,1.5,0,0,1-.022,2.1,1.506,1.506,0,0,1-2.085.041l-1.1-1.1-.018.019-50.678-50.327h0l-25.634-25.456a17.194,17.194,0,0,0-11.824-4.683H236.288Z" fill="#2f9bff"/>
        </g>
        <g id="Group_56" data-name="Group 56">
          <path id="Path_211" data-name="Path 211" d="M312.668,547a21.763,21.763,0,0,1,14.936,5.932l25.635,25.455h0l38.212,37.947c.011.01.022.016.032.026s.016.022.026.032l25.576,25.4c.011.01.023.017.033.027a3,3,0,0,1-4.236,4.255L387.25,620.617l0,0-63.811-63.368A15.687,15.687,0,0,0,312.668,553H253.233v-6Z" fill="#f6f6f6"/>
          <path id="Path_212" data-name="Path 212" d="M253.233,547v6h59.435a15.687,15.687,0,0,1,10.768,4.247l63.811,63.368h0l25.635,25.456a3,3,0,1,0,4.236-4.255c-.01-.01-.022-.017-.033-.027l-25.6-25.426,0,0L327.6,552.932A21.763,21.763,0,0,0,312.668,547Zm1.5,1.5h57.935a20.27,20.27,0,0,1,13.909,5.525l63.9,63.453h0l25.635,25.456a1.517,1.517,0,0,1-.046,2.072,1.47,1.47,0,0,1-1.064.44,1.494,1.494,0,0,1-1.059-.437l-63.813-63.37h0l-25.634-25.456a17.2,17.2,0,0,0-11.825-4.683H254.733Z" fill="#2f9bff"/>
        </g>
        <g id="Group_57" data-name="Group 57">
          <path id="Path_213" data-name="Path 213" d="M377.765,571a21.763,21.763,0,0,1,14.936,5.932l1.53,1.519.008-.008,63.846,63.4c.011.01.023.017.033.027a3,3,0,0,1-4.236,4.255L413.918,606.44a3.01,3.01,0,0,1-.329-.27,2.8,2.8,0,0,1-.185-.225l-24.871-24.7A15.687,15.687,0,0,0,377.765,577H267.375v-6Z" fill="#f6f6f6"/>
          <path id="Path_214" data-name="Path 214" d="M267.375,571v6h110.39a15.687,15.687,0,0,1,10.768,4.247l24.871,24.7.008-.007,40.47,40.188a3,3,0,1,0,4.236-4.255c-.01-.01-.022-.017-.033-.027l-63.846-63.4-.008.008-1.53-1.519A21.763,21.763,0,0,0,377.765,571Zm1.5,1.5H377.766a20.276,20.276,0,0,1,13.909,5.525l24.15,23.982h.014l41.27,40.983a1.516,1.516,0,0,1-.046,2.071,1.47,1.47,0,0,1-1.064.44,1.494,1.494,0,0,1-1.059-.437l-63.813-63.369-.008.007-1.529-1.518a17.2,17.2,0,0,0-11.824-4.683H268.875Z" fill="#2f9bff"/>
        </g>
        <g id="Group_58" data-name="Group 58">
          <rect id="Rectangle_34921" data-name="Rectangle 34921" width="15" height="10" transform="translate(258 555) rotate(-180)" fill="#f6f6f6"/>
          <line id="Line_5" data-name="Line 5" y2="8" transform="translate(250.5 546)" fill="none" stroke="#2f9bff" stroke-miterlimit="10" stroke-width="1.5"/>
          <path id="Path_215" data-name="Path 215" d="M243,545v10h15V545Zm1.5,1.5h12v7h-12Z" fill="#2f9bff"/>
        </g>
        <g id="Group_59" data-name="Group 59">
          <rect id="Rectangle_34922" data-name="Rectangle 34922" width="15" height="10" transform="translate(240 567) rotate(-180)" fill="#f6f6f6"/>
          <line id="Line_6" data-name="Line 6" y2="8" transform="translate(232.5 558)" fill="none" stroke="#2f9bff" stroke-miterlimit="10" stroke-width="1.5"/>
          <path id="Path_216" data-name="Path 216" d="M225,557v10h15V557Zm1.5,1.5h12v7h-12Z" fill="#2f9bff"/>
        </g>
        <g id="Group_60" data-name="Group 60">
          <rect id="Rectangle_34923" data-name="Rectangle 34923" width="15" height="10" transform="translate(272 579) rotate(-180)" fill="#f6f6f6"/>
          <line id="Line_7" data-name="Line 7" y2="8" transform="translate(264.5 570)" fill="none" stroke="#2f9bff" stroke-miterlimit="10" stroke-width="1.5"/>
          <path id="Path_217" data-name="Path 217" d="M257,569v10h15V569Zm1.5,1.5h12v7h-12Z" fill="#2f9bff"/>
        </g>
      </g>
      <rect id="Rectangle_34924" data-name="Rectangle 34924" width="15" height="48.084" transform="translate(422.089 595.788) rotate(45)" fill="#f6f6f6" stroke="#2f9bff" stroke-miterlimit="10" stroke-width="1.5"/>
      <g id="Group_62" data-name="Group 62">
        <rect id="Rectangle_34925" data-name="Rectangle 34925" width="6" height="12.302" transform="translate(380 911.302) rotate(-180)" fill="#f6f6f6"/>
        <path id="Path_218" data-name="Path 218" d="M375.5,899v10.8h3V899H380v12.3h-6V899Z" fill="#2f9bff"/>
      </g>
      <g id="Group_63" data-name="Group 63">
        <rect id="Rectangle_34926" data-name="Rectangle 34926" width="10" height="5.302" transform="translate(382 899.302) rotate(-180)" fill="#f6f6f6"/>
        <path id="Path_219" data-name="Path 219" d="M373.5,894v3.8h7V894H382v5.3H372V894Z" fill="#2f9bff"/>
      </g>
      <g id="Group_72" data-name="Group 72">
        <path id="Path_220" data-name="Path 220" d="M204.3,601.494a6.646,6.646,0,0,1-3.156-3.4l-.883-2.238a1.357,1.357,0,0,0-2.526,0l-.883,2.238a6.646,6.646,0,0,1-3.156,3.4,10.649,10.649,0,0,0-5.7,9.429V656h3v11h16V656h3V610.923A10.649,10.649,0,0,0,204.3,601.494ZM203,643h-8V613a4,4,0,0,1,8,0Z" fill="#f6f6f6"/>
        <path id="Path_221" data-name="Path 221" d="M251.3,601.494a6.646,6.646,0,0,1-3.156-3.4l-.883-2.238a1.357,1.357,0,0,0-2.526,0l-.883,2.238a6.646,6.646,0,0,1-3.156,3.4,10.649,10.649,0,0,0-5.7,9.429V656h3v11h16V656h3V610.923A10.649,10.649,0,0,0,251.3,601.494ZM250,643h-8V613a4,4,0,0,1,8,0Z" fill="#f6f6f6"/>
        <g id="Group_67" data-name="Group 67">
          <g id="Group_64" data-name="Group 64">
            <line id="Line_8" data-name="Line 8" y1="1.373" transform="translate(192.755 610.844)" fill="#f6f6f6"/>
            <rect id="Rectangle_34927" data-name="Rectangle 34927" width="1.5" height="1.373" transform="translate(192.005 610.845)" fill="#2f9bff"/>
          </g>
          <g id="Group_65" data-name="Group 65">
            <rect id="Rectangle_34928" data-name="Rectangle 34928" width="1.5" height="2.585" transform="translate(192.005 614.318)" fill="#2f9bff"/>
          </g>
          <rect id="Rectangle_34929" data-name="Rectangle 34929" width="1.5" height="22.592" transform="translate(192.005 618.599)" fill="#2f9bff"/>
          <rect id="Rectangle_34930" data-name="Rectangle 34930" width="1.5" height="6.878" transform="translate(193.797 657.706)" fill="#2f9bff"/>
          <rect id="Rectangle_34931" data-name="Rectangle 34931" width="1.5" height="7.332" transform="translate(192.005 646.112)" fill="#2f9bff"/>
          <path id="Path_222" data-name="Path 222" d="M204.3,601.494a6.646,6.646,0,0,1-3.156-3.4l-.883-2.238a1.357,1.357,0,0,0-2.526,0l-.883,2.238a6.646,6.646,0,0,1-3.156,3.4,10.649,10.649,0,0,0-5.7,9.429V644h1.5V610.923a9.141,9.141,0,0,1,4.9-8.1,8.17,8.17,0,0,0,3.852-4.173l.75-1.9.751,1.9a8.182,8.182,0,0,0,3.852,4.173,9.142,9.142,0,0,1,4.9,8.1V644H210V610.923A10.649,10.649,0,0,0,204.3,601.494Z" fill="#2f9bff"/>
          <path id="Path_223" data-name="Path 223" d="M188,643v13h22V643Zm20.5,11.5h-19v-10h19Z" fill="#2f9bff"/>
          <g id="Group_66" data-name="Group 66">
            <rect id="Rectangle_34932" data-name="Rectangle 34932" width="1.5" height="12" transform="translate(191 655)" fill="#2f9bff"/>
            <rect id="Rectangle_34933" data-name="Rectangle 34933" width="1.5" height="12" transform="translate(205.499 655)" fill="#2f9bff"/>
          </g>
        </g>
        <g id="Group_71" data-name="Group 71">
          <g id="Group_68" data-name="Group 68">
            <line id="Line_9" data-name="Line 9" y1="1.373" transform="translate(239.755 610.844)" fill="#f6f6f6"/>
            <rect id="Rectangle_34934" data-name="Rectangle 34934" width="1.5" height="1.373" transform="translate(239.005 610.845)" fill="#2f9bff"/>
          </g>
          <g id="Group_69" data-name="Group 69">
            <rect id="Rectangle_34935" data-name="Rectangle 34935" width="1.5" height="2.585" transform="translate(239.005 614.318)" fill="#2f9bff"/>
          </g>
          <rect id="Rectangle_34936" data-name="Rectangle 34936" width="1.5" height="22.592" transform="translate(239.005 618.599)" fill="#2f9bff"/>
          <rect id="Rectangle_34937" data-name="Rectangle 34937" width="1.5" height="6.878" transform="translate(240.797 657.706)" fill="#2f9bff"/>
          <rect id="Rectangle_34938" data-name="Rectangle 34938" width="1.5" height="7.332" transform="translate(239.005 646.112)" fill="#2f9bff"/>
          <path id="Path_224" data-name="Path 224" d="M251.3,601.494a6.646,6.646,0,0,1-3.156-3.4l-.883-2.238a1.357,1.357,0,0,0-2.526,0l-.883,2.238a6.646,6.646,0,0,1-3.156,3.4,10.649,10.649,0,0,0-5.7,9.429V644h1.5V610.923a9.141,9.141,0,0,1,4.9-8.1,8.17,8.17,0,0,0,3.852-4.173l.75-1.9.751,1.9a8.182,8.182,0,0,0,3.852,4.173,9.142,9.142,0,0,1,4.9,8.1V644H257V610.923A10.649,10.649,0,0,0,251.3,601.494Z" fill="#2f9bff"/>
          <path id="Path_225" data-name="Path 225" d="M235,643v13h22V643Zm20.5,11.5h-19v-10h19Z" fill="#2f9bff"/>
          <g id="Group_70" data-name="Group 70">
            <rect id="Rectangle_34939" data-name="Rectangle 34939" width="1.5" height="12" transform="translate(238 655)" fill="#2f9bff"/>
            <rect id="Rectangle_34940" data-name="Rectangle 34940" width="1.5" height="12" transform="translate(252.499 655)" fill="#2f9bff"/>
          </g>
        </g>
      </g>
      <path id="Path_226" data-name="Path 226" d="M446.978,871.666v16.4L459.1,906.33h3.661v10.253h9.283V906.33H475.7l12.121-18.269v-16.4Z" fill="#f6f6f6"/>
      <path id="Path_227" data-name="Path 227" d="M74,879H506.424a6.074,6.074,0,0,0,4.294-1.779l46.5-54.378A6.072,6.072,0,0,0,559,818.549V663H74Z" fill="#f6f6f6"/>
      <path id="Path_228" data-name="Path 228" d="M74,663V879H506.424a6.072,6.072,0,0,0,4.294-1.779l46.5-54.378A6.072,6.072,0,0,0,559,818.549V663Zm1.5,1.5h482V818.549a4.542,4.542,0,0,1-1.339,3.233l-.041.041-46.5,54.376a4.54,4.54,0,0,1-3.194,1.3H75.5Z" fill="#2f9bff"/>
      <g id="Group_75" data-name="Group 75">
        <g id="Group_74" data-name="Group 74">
          <g id="Group_73" data-name="Group 73">
            <path id="Path_229" data-name="Path 229" d="M432,702l134,0V863.9a2.1,2.1,0,0,1-2.1,2.1h-129.9A1.993,1.993,0,0,1,432,864.007Z" fill="#f6f6f6"/>
          </g>
        </g>
      </g>
      <g id="Group_76" data-name="Group 76">
        <path id="Path_230" data-name="Path 230" d="M114.877,685.932a7.669,7.669,0,1,1-3.5-10.266A7.668,7.668,0,0,1,114.877,685.932Z" fill="#f6f6f6" stroke="#2f9bff" stroke-miterlimit="10" stroke-width="1.5"/>
        <line id="Line_10" data-name="Line 10" y1="5.967" x2="6.781" transform="translate(104.604 679.565)" fill="#f6f6f6" stroke="#2f9bff" stroke-miterlimit="10" stroke-width="1.5"/>
      </g>
      <g id="Group_77" data-name="Group 77">
        <path id="Path_231" data-name="Path 231" d="M555.822,845.089a7.669,7.669,0,1,1-3.5-10.266A7.669,7.669,0,0,1,555.822,845.089Z" fill="#f6f6f6" stroke="#2f9bff" stroke-miterlimit="10" stroke-width="1.5"/>
        <line id="Line_11" data-name="Line 11" y1="5.967" x2="6.781" transform="translate(545.549 838.722)" fill="#f6f6f6" stroke="#2f9bff" stroke-miterlimit="10" stroke-width="1.5"/>
      </g>
      <path id="Path_232" data-name="Path 232" d="M425.995,952H404.156a27.906,27.906,0,0,1-27.906-27.906V910.857h1.5v13.237A26.406,26.406,0,0,0,404.156,950.5h36a26.406,26.406,0,0,0,26.406-26.406v-8.3h1.5v8.3A27.906,27.906,0,0,1,440.152,952H425.995Z" fill="#2f9bff"/>
      <line id="Line_12" data-name="Line 12" y2="7.177" transform="translate(465.632 906.33)" fill="#f6f6f6" stroke="#2f9bff" stroke-miterlimit="10" stroke-width="1.5"/>
      <line id="Line_13" data-name="Line 13" x2="8.15" y2="14.438" transform="translate(453.155 888.305)" fill="#f6f6f6" stroke="#2f9bff" stroke-miterlimit="10" stroke-width="1.5"/>
      <path id="Path_233" data-name="Path 233" d="M432,702V864.007A1.993,1.993,0,0,0,433.993,866H563.9a2.1,2.1,0,0,0,2.1-2.1V702Zm1.5,1.5,131,0V863.9a.6.6,0,0,1-.6.6h-129.9a.5.5,0,0,1-.493-.493Z" fill="#2f9bff"/>
      <path id="Path_234" data-name="Path 234" d="M486.324,878v9.609L474.9,904.83h-15l-11.425-17.221V878h-1.5v10.062L459.1,906.33h16.6l12.121-18.269V878Z" fill="#2f9bff"/>
      <path id="Path_235" data-name="Path 235" d="M470.543,906v9.083h-6.283V906h-1.5v10.583h9.283V906Z" fill="#2f9bff"/>
      <g id="Group_82" data-name="Group 82">
        <rect id="Rectangle_34941" data-name="Rectangle 34941" width="66" height="125" transform="translate(268 770)" fill="#f6f6f6"/>
        <path id="Path_236" data-name="Path 236" d="M268,770V895h66V770Zm1.5,1.5h63v122h-63Z" fill="#2f9bff"/>
        <g id="Group_81" data-name="Group 81">
          <g id="Group_80" data-name="Group 80">
            <g id="Group_79" data-name="Group 79">
              <g id="Group_78" data-name="Group 78">
                <rect id="Rectangle_34942" data-name="Rectangle 34942" width="1.5" height="44" transform="translate(312.5 792.5)" fill="#2f9bff"/>
                <rect id="Rectangle_34943" data-name="Rectangle 34943" width="1.5" height="44" transform="translate(288 792.5)" fill="#2f9bff"/>
              </g>
              <path id="Path_237" data-name="Path 237" d="M311,831.5h4.5v-2H317v2h1v2h-1v2h-1.5v-2H311Z" fill="#2f9bff"/>
              <rect id="Rectangle_34944" data-name="Rectangle 34944" width="26" height="1.5" transform="translate(288 788.531)" fill="#2f9bff"/>
              <path id="Path_238" data-name="Path 238" d="M285,784v9h32v-9Zm1.5,1.5h29v6h-29Z" fill="#2f9bff"/>
              <path id="Path_239" data-name="Path 239" d="M284,831.5h1v-2h1.5v2H291v2h-4.5v2H285v-2h-1Z" fill="#2f9bff"/>
            </g>
          </g>
        </g>
        <path id="Path_240" data-name="Path 240" d="M273,775V890h56V775Zm1.5,1.5h53v112h-53Z" fill="#2f9bff"/>
      </g>
      <g id="Group_87" data-name="Group 87">
        <rect id="Rectangle_34945" data-name="Rectangle 34945" width="66" height="125" transform="translate(344 770)" fill="#f6f6f6"/>
        <path id="Path_241" data-name="Path 241" d="M344,770V895h66V770Zm1.5,1.5h63v122h-63Z" fill="#2f9bff"/>
        <g id="Group_86" data-name="Group 86">
          <g id="Group_85" data-name="Group 85">
            <g id="Group_84" data-name="Group 84">
              <g id="Group_83" data-name="Group 83">
                <rect id="Rectangle_34946" data-name="Rectangle 34946" width="1.5" height="44" transform="translate(388.5 792.5)" fill="#2f9bff"/>
                <rect id="Rectangle_34947" data-name="Rectangle 34947" width="1.5" height="44" transform="translate(364 792.5)" fill="#2f9bff"/>
              </g>
              <path id="Path_242" data-name="Path 242" d="M387,831.5h4.5v-2H393v2h1v2h-1v2h-1.5v-2H387Z" fill="#2f9bff"/>
              <rect id="Rectangle_34948" data-name="Rectangle 34948" width="26" height="1.5" transform="translate(364 788.531)" fill="#2f9bff"/>
              <path id="Path_243" data-name="Path 243" d="M361,784v9h32v-9Zm1.5,1.5h29v6h-29Z" fill="#2f9bff"/>
              <path id="Path_244" data-name="Path 244" d="M360,831.5h1v-2h1.5v2H367v2h-4.5v2H361v-2h-1Z" fill="#2f9bff"/>
            </g>
          </g>
        </g>
        <path id="Path_245" data-name="Path 245" d="M349,775V890h56V775Zm1.5,1.5h53v112h-53Z" fill="#2f9bff"/>
      </g>
      <circle id="Ellipse_221" data-name="Ellipse 221" cx="0.75" cy="0.75" r="0.75" transform="translate(466.72 746.717)" fill="#2f9bff"/>
      <g id="Group_89" data-name="Group 89">
        <path id="Path_246" data-name="Path 246" d="M493,484.255v-20a20,20,0,0,1,20,20Z" fill="#f6f6f6"/>
        <path id="Path_247" data-name="Path 247" d="M525,484.255a32,32,0,0,0-32-32v-12h44v44Z" fill="#f6f6f6"/>
        <path id="Path_248" data-name="Path 248" d="M537,484.255a44,44,0,0,0-44-44v1.5c.623,0,1.5.026,1.5.026a42.555,42.555,0,0,1,40.973,40.974s.027.67.027,1.5Z" fill="#2f9bff"/>
        <path id="Path_249" data-name="Path 249" d="M502.5,484.255a11.69,11.69,0,0,0-.118-1.5,9.491,9.491,0,0,0-9.382-8v1.5a8,8,0,0,1,8,8Z" fill="#2f9bff"/>
        <g id="Group_88" data-name="Group 88">
          <path id="Path_250" data-name="Path 250" d="M493.218,470.255A13.782,13.782,0,0,1,507,484.036" fill="none" stroke="#2f9bff" stroke-miterlimit="10" stroke-width="1.5"/>
        </g>
      </g>
      <g id="Group_90" data-name="Group 90">
        <rect id="Rectangle_34949" data-name="Rectangle 34949" width="12" height="76.75" transform="translate(524.999 484.25)" fill="#f6f6f6"/>
        <rect id="Rectangle_34950" data-name="Rectangle 34950" width="12" height="76.75" transform="translate(500.999 484.25)" fill="#f6f6f6"/>
        <line id="Line_14" data-name="Line 14" y1="76.964" transform="translate(506.999 484.036)" fill="none" stroke="#2f9bff" stroke-miterlimit="10" stroke-width="1.5"/>
        <rect id="Rectangle_34951" data-name="Rectangle 34951" width="1.5" height="76.849" transform="translate(500.999 484.151)" fill="#2f9bff"/>
        <rect id="Rectangle_34952" data-name="Rectangle 34952" width="1.5" height="76.75" transform="translate(535.499 484.25)" fill="#2f9bff"/>
      </g>
      <g id="Group_101" data-name="Group 101">
        <rect id="Rectangle_34953" data-name="Rectangle 34953" width="22.017" height="484.005" transform="translate(136.983 -60)" fill="#54e9dc"/>
        <g id="Group_91" data-name="Group 91">
          <rect id="Rectangle_34954" data-name="Rectangle 34954" width="12" height="492.255" transform="translate(152.999 -60)" fill="#f6f6f6"/>
          <rect id="Rectangle_34955" data-name="Rectangle 34955" width="12" height="492.255" transform="translate(128.999 -60)" fill="#f6f6f6"/>
          <line id="Line_15" data-name="Line 15" y1="492.255" transform="translate(134.999 -60)" fill="none" stroke="#2f9bff" stroke-miterlimit="10" stroke-width="1.5"/>
          <rect id="Rectangle_34956" data-name="Rectangle 34956" width="1.5" height="492.255" transform="translate(128.999 -60)" fill="#2f9bff"/>
          <rect id="Rectangle_34957" data-name="Rectangle 34957" width="1.5" height="492.255" transform="translate(163.499 -60)" fill="#2f9bff"/>
        </g>
        <g id="Group_92" data-name="Group 92">
          <path id="Path_251" data-name="Path 251" d="M153,432.255a20,20,0,0,0,20,20v-20Z" fill="#f6f6f6"/>
          <path id="Path_252" data-name="Path 252" d="M129,432.255v44h44v-12a32,32,0,0,1-32-32Z" fill="#f6f6f6"/>
          <path id="Path_253" data-name="Path 253" d="M129,432.255a44,44,0,0,0,44,44v-1.5c-.623,0-1.5-.026-1.5-.026a42.557,42.557,0,0,1-40.974-40.974s-.026-.671-.026-1.5Z" fill="#2f9bff"/>
          <path id="Path_254" data-name="Path 254" d="M138.966,449.177A37.839,37.839,0,0,1,135,432.255" fill="none" stroke="#2f9bff" stroke-miterlimit="10" stroke-width="1.5"/>
          <path id="Path_255" data-name="Path 255" d="M163.5,432.255a11.687,11.687,0,0,0,.118,1.5,9.492,9.492,0,0,0,9.382,8v-1.5a8,8,0,0,1-8-8Z" fill="#2f9bff"/>
        </g>
        <g id="Group_100" data-name="Group 100">
          <g id="Group_93" data-name="Group 93">
            <rect id="Rectangle_34958" data-name="Rectangle 34958" width="320" height="12" transform="translate(172.999 464.255)" fill="#f6f6f6"/>
            <rect id="Rectangle_34959" data-name="Rectangle 34959" width="320" height="12" transform="translate(172.999 440.255)" fill="#f6f6f6"/>
            <rect id="Rectangle_34960" data-name="Rectangle 34960" width="320" height="1.5" transform="translate(172.999 440.255)" fill="#2f9bff"/>
            <rect id="Rectangle_34961" data-name="Rectangle 34961" width="320" height="1.5" transform="translate(172.999 474.755)" fill="#2f9bff"/>
          </g>
          <g id="Group_98" data-name="Group 98">
            <g id="Group_95" data-name="Group 95">
              <g id="Group_94" data-name="Group 94">
                <path id="Path_256" data-name="Path 256" d="M248.788,416.755a8.8,8.8,0,0,0-8.789,8.79v15.21h27v-24Z" fill="#f6f6f6"/>
                <path id="Path_257" data-name="Path 257" d="M223,402.255v38.5h13v-15.21a12.8,12.8,0,0,1,12.789-12.79H267v-10.5Z" fill="#f6f6f6"/>
              </g>
              <path id="Path_258" data-name="Path 258" d="M244.5,425.545v15.21H246v-15.21a2.793,2.793,0,0,1,2.789-2.79H266v-1.5H248.788A4.294,4.294,0,0,0,244.5,425.545Z" fill="#2f9bff"/>
              <path id="Path_259" data-name="Path 259" d="M248.788,406.755A18.81,18.81,0,0,0,230,425.545v15.21h1.5v-15.21a17.308,17.308,0,0,1,17.289-17.29H266v-1.5Z" fill="#2f9bff"/>
            </g>
            <g id="Group_97" data-name="Group 97">
              <g id="Group_96" data-name="Group 96">
                <path id="Path_260" data-name="Path 260" d="M424.21,416.755a8.8,8.8,0,0,1,8.789,8.79v15.21H406v-24Z" fill="#f6f6f6"/>
                <path id="Path_261" data-name="Path 261" d="M450,402.255v38.5H437v-15.21a12.8,12.8,0,0,0-12.789-12.79H406v-10.5Z" fill="#f6f6f6"/>
              </g>
              <path id="Path_262" data-name="Path 262" d="M428.5,425.545v15.21H427v-15.21a2.793,2.793,0,0,0-2.789-2.79H407v-1.5H424.21A4.294,4.294,0,0,1,428.5,425.545Z" fill="#2f9bff"/>
              <path id="Path_263" data-name="Path 263" d="M424.21,406.755A18.81,18.81,0,0,1,443,425.545v15.21h-1.5v-15.21a17.308,17.308,0,0,0-17.289-17.29H407v-1.5Z" fill="#2f9bff"/>
            </g>
            <rect id="Rectangle_34962" data-name="Rectangle 34962" width="25.944" height="9" transform="translate(246.054 486.255)" fill="#f6f6f6"/>
            <rect id="Rectangle_34963" data-name="Rectangle 34963" width="115" height="7" transform="translate(278.999 417.755)" fill="#f6f6f6"/>
            <rect id="Rectangle_34964" data-name="Rectangle 34964" width="115" height="7" transform="translate(278.999 404.755)" fill="#f6f6f6"/>
            <rect id="Rectangle_34965" data-name="Rectangle 34965" width="24" height="16" transform="translate(407.999 402.755) rotate(90)" fill="#f6f6f6"/>
            <rect id="Rectangle_34966" data-name="Rectangle 34966" width="24" height="16" transform="translate(281.499 402.255) rotate(90)" fill="#f6f6f6"/>
            <path id="Path_264" data-name="Path 264" d="M392,402.755v24h16v-24Zm1.5,1.5h13v21h-13Z" fill="#2f9bff"/>
            <path id="Path_265" data-name="Path 265" d="M265.5,402.255v24h16v-24Zm1.5,1.5h13v21H267Z" fill="#2f9bff"/>
            <rect id="Rectangle_34967" data-name="Rectangle 34967" width="113" height="1.5" transform="translate(279.999 404.755)" fill="#2f9bff"/>
            <rect id="Rectangle_34968" data-name="Rectangle 34968" width="113" height="1.5" transform="translate(279.999 423.255)" fill="#2f9bff"/>
            <rect id="Rectangle_34969" data-name="Rectangle 34969" width="10" height="27" transform="translate(313.999 477.255) rotate(-180)" fill="#f6f6f6"/>
            <path id="Path_266" data-name="Path 266" d="M199,436.255v55H306v-55Z" fill="#f6f6f6"/>
            <rect id="Rectangle_34970" data-name="Rectangle 34970" width="46" height="55" transform="translate(449.999 491.255) rotate(-180)" fill="#f6f6f6"/>
            <circle id="Ellipse_222" data-name="Ellipse 222" cx="5.5" cy="5.5" r="5.5" transform="translate(409.999 470.255)" fill="#f6f6f6"/>
            <path id="Path_267" data-name="Path 267" d="M199,436.255v55H306v-55Zm1.5,1.5h104v52h-104Z" fill="#2f9bff"/>
            <path id="Path_268" data-name="Path 268" d="M404,436.255v55h46v-55Zm1.5,1.5h43v52h-43Z" fill="#2f9bff"/>
            <path id="Path_269" data-name="Path 269" d="M205,463.755a33.5,33.5,0,1,0,33.5-33.5A33.5,33.5,0,0,0,205,463.755Zm12,0a21.5,21.5,0,1,1,21.5,21.5A21.5,21.5,0,0,1,217,463.755Z" fill="#f6f6f6"/>
            <path id="Path_270" data-name="Path 270" d="M205,463.755a33.5,33.5,0,1,0,33.5-33.5A33.5,33.5,0,0,0,205,463.755Zm1.5,0a32,32,0,1,1,32,32A32.036,32.036,0,0,1,206.5,463.755Z" fill="#2f9bff"/>
            <path id="Path_271" data-name="Path 271" d="M216,463.755a22.5,22.5,0,1,0,22.5-22.5A22.5,22.5,0,0,0,216,463.755Zm1.5,0a21,21,0,1,1,21,21A21.024,21.024,0,0,1,217.5,463.755Z" fill="#2f9bff"/>
            <path id="Path_272" data-name="Path 272" d="M238.5,480.255a16.5,16.5,0,0,1-16.5-16.5" fill="none" stroke="#2f9bff" stroke-miterlimit="10" stroke-width="1.5"/>
            <path id="Path_273" data-name="Path 273" d="M238.5,447.255a16.5,16.5,0,0,1,16.5,16.5" fill="none" stroke="#fff" stroke-miterlimit="10" stroke-width="1.5"/>
            <path id="Path_274" data-name="Path 274" d="M251.013,493.755H270.5v-3.5H272v5H246.521A32.337,32.337,0,0,0,251.013,493.755Z" fill="#2f9bff"/>
            <circle id="Ellipse_223" data-name="Ellipse 223" cx="5.5" cy="5.5" r="5.5" transform="translate(288.999 470.255)" fill="#f6f6f6"/>
            <circle id="Ellipse_224" data-name="Ellipse 224" cx="5.5" cy="5.5" r="5.5" transform="translate(409.999 470.255)" fill="#f6f6f6"/>
            <circle id="Ellipse_225" data-name="Ellipse 225" cx="4" cy="4" r="4" transform="translate(411.499 471.755)" fill="#f6f6f6"/>
            <path id="Path_275" data-name="Path 275" d="M289,475.755a5.5,5.5,0,1,0,5.5-5.5A5.5,5.5,0,0,0,289,475.755Zm1.5,0a4,4,0,1,1,4,4A4,4,0,0,1,290.5,475.755Z" fill="#2f9bff"/>
            <path id="Path_276" data-name="Path 276" d="M410,475.755a5.5,5.5,0,1,0,5.5-5.5A5.5,5.5,0,0,0,410,475.755Zm1.5,0a4,4,0,1,1,4,4A4,4,0,0,1,411.5,475.755Z" fill="#2f9bff"/>
            <rect id="Rectangle_34971" data-name="Rectangle 34971" width="126" height="5" rx="2.5" transform="translate(291.999 473.255)" fill="#f6f6f6"/>
            <path id="Path_277" data-name="Path 277" d="M292,475.755a2.5,2.5,0,0,0,2.5,2.5h121a2.5,2.5,0,0,0,0-5h-121A2.5,2.5,0,0,0,292,475.755Zm1.5,0a1,1,0,0,1,1-1h121a1,1,0,0,1,0,2h-121A1,1,0,0,1,293.5,475.755Z" fill="#2f9bff"/>
            <path id="Path_278" data-name="Path 278" d="M312.5,474.255v-22.5H305v-1.5h9v24Z" fill="#2f9bff"/>
            <circle id="Ellipse_226" data-name="Ellipse 226" cx="21" cy="21" r="21" transform="translate(428.999 443.255)" fill="#f6f6f6"/>
            <circle id="Ellipse_227" data-name="Ellipse 227" cx="16.155" cy="16.155" r="16.155" transform="translate(433.844 448.1)" fill="none" stroke="#2f9bff" stroke-miterlimit="10" stroke-width="1.5"/>
            <path id="Path_279" data-name="Path 279" d="M429,464.255a21,21,0,1,0,21-21A21.024,21.024,0,0,0,429,464.255Zm1.5,0a19.5,19.5,0,1,1,19.5,19.5A19.523,19.523,0,0,1,430.5,464.255Z" fill="#2f9bff"/>
          </g>
          <g id="Group_99" data-name="Group 99">
            <circle id="Ellipse_228" data-name="Ellipse 228" cx="10.998" cy="10.998" r="10.998" transform="translate(437.613 473.663) rotate(-82.221)" fill="#f6f6f6"/>
            <line id="Line_16" data-name="Line 16" x2="10.619" y2="0.038" transform="translate(449.998 464.254)" fill="#f6f6f6" stroke="#2f9bff" stroke-miterlimit="10" stroke-width="1.5"/>
            <circle id="Ellipse_229" data-name="Ellipse 229" cx="3.65" cy="3.65" r="3.65" transform="matrix(0.435, -0.9, 0.9, 0.435, 445.124, 465.954)" fill="#f6f6f6" stroke="#2f9bff" stroke-miterlimit="10" stroke-width="1.5"/>
          </g>
        </g>
      </g>
    </g>
    <g id="base">
      <g id="Group_102" data-name="Group 102">
        <path id="Path_280" data-name="Path 280" d="M537,610V826H501V610h12V808h0a6,6,0,0,0,12,0V610Z" fill="#f6f6f6"/>
        <rect id="Rectangle_34972" data-name="Rectangle 34972" width="1.5" height="92.529" transform="translate(535.501 610)" fill="#2f9bff"/>
        <path id="Path_281" data-name="Path 281" d="M507,610V807.42c0,7.328,5.237,9.98,5.237,9.98" fill="none" stroke="#2f9bff" stroke-miterlimit="10" stroke-width="1.5"/>
        <rect id="Rectangle_34973" data-name="Rectangle 34973" width="1.5" height="92.529" transform="translate(501.001 610)" fill="#2f9bff"/>
        <path id="Path_282" data-name="Path 282" d="M501,808V702.529h1.5V808a16.5,16.5,0,0,0,33,0V702.529H537V808a18,18,0,0,1-36,0Z" fill="#2f9bff"/>
      </g>
      <g id="Group_103" data-name="Group 103">
        <rect id="Rectangle_34974" data-name="Rectangle 34974" width="25" height="8" transform="translate(564 564)" fill="#f6f6f6"/>
        <rect id="Rectangle_34975" data-name="Rectangle 34975" width="25" height="8" transform="translate(564 583)" fill="#f6f6f6"/>
        <path id="Path_283" data-name="Path 283" d="M494,553h16v-6.009A1.991,1.991,0,0,1,511.993,545h44.9a2.105,2.105,0,0,1,2.1,2.1V553h6v65h-6v8H510v-8H494Z" fill="#f6f6f6"/>
        <path id="Path_284" data-name="Path 284" d="M548.539,607.109a7.668,7.668,0,1,1-7.669-7.668A7.668,7.668,0,0,1,548.539,607.109Z" fill="#f6f6f6" stroke="#2f9bff" stroke-miterlimit="10" stroke-width="1.5"/>
        <path id="Path_285" data-name="Path 285" d="M510,546.991V626h49V547.1a2.105,2.105,0,0,0-2.1-2.1h-44.9A1.991,1.991,0,0,0,510,546.991Zm1.5,0a.494.494,0,0,1,.493-.491h44.9a.606.606,0,0,1,.6.6v77.4h-46Z" fill="#2f9bff"/>
        <path id="Path_286" data-name="Path 286" d="M558,616.5h5.5v-62H558V553h7v65h-7Z" fill="#2f9bff"/>
        <rect id="Rectangle_34976" data-name="Rectangle 34976" width="25" height="1.5" transform="translate(564 563)" fill="#2f9bff"/>
        <rect id="Rectangle_34977" data-name="Rectangle 34977" width="25" height="1.5" transform="translate(564 571.5)" fill="#2f9bff"/>
        <rect id="Rectangle_34978" data-name="Rectangle 34978" width="25" height="1.5" transform="translate(564 582)" fill="#2f9bff"/>
        <rect id="Rectangle_34979" data-name="Rectangle 34979" width="25" height="1.5" transform="translate(564 590.5)" fill="#2f9bff"/>
        <path id="Path_287" data-name="Path 287" d="M590,545.053V540h24v6.1a5.122,5.122,0,0,1,2,4.047V752.37a6.7,6.7,0,0,1-1.609,4.356l-9.262,10.927a6.7,6.7,0,0,1-5.1,2.347h-9.521A2.513,2.513,0,0,1,588,767.487V547.513A2.513,2.513,0,0,1,590,545.053Z" fill="#f6f6f6"/>
        <path id="Path_288" data-name="Path 288" d="M593,556h18v-3h-1.5v1.5h-15V553H593Z" fill="#2f9bff"/>
        <path id="Path_289" data-name="Path 289" d="M593,567h18v-3h-1.5v1.5h-15V564H593Z" fill="#2f9bff"/>
        <path id="Path_290" data-name="Path 290" d="M593,578h18v-3h-1.5v1.5h-15V575H593Z" fill="#2f9bff"/>
        <path id="Path_291" data-name="Path 291" d="M593,589h18v-3h-1.5v1.5h-15V586H593Z" fill="#2f9bff"/>
        <path id="Path_292" data-name="Path 292" d="M593,600h18v-3h-1.5v1.5h-15V597H593Z" fill="#2f9bff"/>
        <path id="Path_293" data-name="Path 293" d="M593,611h18v-3h-1.5v1.5h-15V608H593Z" fill="#2f9bff"/>
        <path id="Path_294" data-name="Path 294" d="M593,622h18v-3h-1.5v1.5h-15V619H593Z" fill="#2f9bff"/>
        <path id="Path_295" data-name="Path 295" d="M588,547.513V767.487A2.513,2.513,0,0,0,590.513,770h9.521a6.7,6.7,0,0,0,5.1-2.347l9.262-10.927A6.7,6.7,0,0,0,616,752.37V550.151A5.151,5.151,0,0,0,610.848,545H590.513A2.513,2.513,0,0,0,588,547.513Zm1.5,0a1.014,1.014,0,0,1,1.013-1.013h20.335a3.656,3.656,0,0,1,3.652,3.651V752.37a5.214,5.214,0,0,1-1.253,3.387l-9.258,10.921a5.194,5.194,0,0,1-3.955,1.822h-9.52a1.014,1.014,0,0,1-1.013-1.013Z" fill="#2f9bff"/>
        <path id="Path_296" data-name="Path 296" d="M614,547.485V540H590v5.985h1.5V541.5h21v4.485Z" fill="#2f9bff"/>
        <line id="Line_17" data-name="Line 17" y1="8.347" x2="3.452" transform="translate(539.145 602.937)" fill="#f6f6f6" stroke="#2f9bff" stroke-miterlimit="10" stroke-width="1.5"/>
        <path id="Path_297" data-name="Path 297" d="M511,553v1.5H495.5v62H511V618H494V553Z" fill="#2f9bff"/>
      </g>
    </g>
    <g id="Layer_8" data-name="Layer 8">
      <g id="Group_105" data-name="Group 105">
        <g id="Group_104" data-name="Group 104">
          <circle id="Ellipse_230" data-name="Ellipse 230" cx="13.498" cy="13.498" r="13.498" transform="matrix(0.952, -0.307, 0.307, 0.952, 450.506, 839.804)" fill="#f6f6f6"/>
          <line id="Line_18" data-name="Line 18" y1="3.695" x2="6.461" transform="translate(472.502 841.944)" fill="#f6f6f6" stroke="#2f9bff" stroke-miterlimit="10" stroke-width="1.5"/>
          <path id="Path_298" data-name="Path 298" d="M471.094,842.787a6.749,6.749,0,1,0,2.118,9.307A6.75,6.75,0,0,0,471.094,842.787Zm-.8,1.27a5.249,5.249,0,1,1-7.238,1.648A5.255,5.255,0,0,1,470.3,844.057Z" fill="#2f9bff"/>
        </g>
      </g>
      <g id="Group_107" data-name="Group 107">
        <g id="Group_106" data-name="Group 106">
          <circle id="Ellipse_231" data-name="Ellipse 231" cx="13.498" cy="13.498" r="13.498" transform="matrix(0.952, -0.307, 0.307, 0.952, 450.506, 800.804)" fill="#f6f6f6"/>
          <line id="Line_19" data-name="Line 19" y1="3.695" x2="6.461" transform="translate(472.502 802.944)" fill="#f6f6f6" stroke="#2f9bff" stroke-miterlimit="10" stroke-width="1.5"/>
          <path id="Path_299" data-name="Path 299" d="M471.094,803.787a6.749,6.749,0,1,0,2.118,9.307A6.75,6.75,0,0,0,471.094,803.787Zm-.8,1.27a5.249,5.249,0,1,1-7.238,1.648A5.255,5.255,0,0,1,470.3,805.057Z" fill="#2f9bff"/>
        </g>
      </g>
      <g id="Group_108" data-name="Group 108">
        <path id="Path_300" data-name="Path 300" d="M141.092,791.721,307.223,655.168,302.132,649,136,785.553Z" fill="#f6f6f6"/>
        <path id="Path_301" data-name="Path 301" d="M136,785.553l5.092,6.168L307.223,655.168,302.132,649Zm2.113.2L301.928,651.109l3.183,3.855L141.295,789.612Z" fill="#2f9bff"/>
      </g>
      <g id="Group_109" data-name="Group 109">
        <path id="Path_302" data-name="Path 302" d="M163.645,820.122l174.265-119.8-4.543-6.579L159.1,813.543Z" fill="#f6f6f6"/>
        <path id="Path_303" data-name="Path 303" d="M159.1,813.543l4.543,6.579,174.265-119.8-4.543-6.579Zm2.089.384L332.982,695.821l2.84,4.112L164.03,818.039Z" fill="#2f9bff"/>
      </g>
    </g>
    <g id="Layer_5" data-name="Layer 5">
      <g id="Group_110" data-name="Group 110">
        <path id="Path_304" data-name="Path 304" d="M450.487,864h34.025L491,850H444Z" fill="#f6f6f6"/>
        <path id="Path_305" data-name="Path 305" d="M444,850h47c0-13.807-10.521-25-23.5-25S444,836.193,444,850Zm45.456-1.5H445.544c.726-12.262,10.3-22,21.956-22S488.729,836.238,489.456,848.5Z" fill="#2f9bff"/>
      </g>
      <g id="Group_111" data-name="Group 111">
        <path id="Path_306" data-name="Path 306" d="M450.487,825h34.025L491,811H444Z" fill="#f6f6f6"/>
        <path id="Path_307" data-name="Path 307" d="M444,811h47c0-13.807-10.521-25-23.5-25S444,797.193,444,811Zm45.456-1.5H445.544c.726-12.262,10.3-22,21.956-22S488.729,797.238,489.456,809.5Z" fill="#2f9bff"/>
      </g>
      <g id="Group_113" data-name="Group 113">
        <path id="Path_308" data-name="Path 308" d="M51.355,793.154l.066-.774.77.095A6.626,6.626,0,0,0,54.274,779.4l-.76-.15.176-.754a100.938,100.938,0,0,1,5.138-15.878l.3-.718.7.329a6.626,6.626,0,0,0,6.007-11.8l-.682-.378.4-.665a100.4,100.4,0,0,1,9.83-13.489l.507-.586.568.527a6.626,6.626,0,0,0,9.374-9.353l-.526-.569.587-.506a101.558,101.558,0,0,1,13.5-9.807l.662-.4.378.676a6.626,6.626,0,0,0,11.795-6.02l-.326-.7.714-.3a100.4,100.4,0,0,1,15.865-5.184l.757-.179.149.765a6.626,6.626,0,0,0,13.081-2.072l-.1-.774.776-.063a100.668,100.668,0,0,1,16.69.017l.773.065-.094.771a6.626,6.626,0,0,0,13.08,2.071l.15-.761.755.177a100.6,100.6,0,0,1,15.879,5.141l.718.3-.33.707a6.626,6.626,0,0,0,11.8,6.013l.377-.682.666.4a100.5,100.5,0,0,1,13.5,9.822l.587.508-.528.568a6.626,6.626,0,0,0,9.36,9.369l.568-.528.507.588a101.466,101.466,0,0,1,9.809,13.5l.4.663-.679.378a6.626,6.626,0,0,0,6.019,11.8l.7-.327.3.715a100.53,100.53,0,0,1,5.171,15.871l.178.758-.764.148a6.626,6.626,0,0,0,2.073,13.082l.773-.1.064.778a100.567,100.567,0,0,1-.018,16.691l-.066.774-.77-.094a6.626,6.626,0,0,0-2.083,13.079l.761.15-.177.754a100.688,100.688,0,0,1-5.138,15.878l-.3.718-.706-.329a6.626,6.626,0,0,0-6.005,11.8l.682.378-.4.665a100.36,100.36,0,0,1-9.83,13.489l-.506.586-.568-.527a6.625,6.625,0,0,0-9.374,9.352l.524.569-.586.506a101.593,101.593,0,0,1-13.495,9.808l-.663.4-.378-.676a6.625,6.625,0,0,0-11.794,6.019l.326.7-.715.3a100.584,100.584,0,0,1-15.863,5.184l-.759.179-.148-.765a6.626,6.626,0,0,0-13.081,2.072l.1.774-.776.063a100.668,100.668,0,0,1-16.69-.017l-.772-.065.092-.771a6.626,6.626,0,0,0-13.08-2.072l-.149.762-.755-.177a100.555,100.555,0,0,1-15.878-5.141l-.719-.3.329-.707a6.625,6.625,0,0,0-11.8-6.013l-.377.682-.666-.4a100.419,100.419,0,0,1-13.5-9.822l-.587-.508.529-.568a6.626,6.626,0,0,0-9.359-9.369l-.57.528-.506-.588a101.3,101.3,0,0,1-9.809-13.5l-.4-.663.678-.378a6.626,6.626,0,0,0-6.019-11.8l-.7.327-.3-.716a100.426,100.426,0,0,1-5.172-15.871l-.178-.758.764-.148a6.626,6.626,0,0,0-2.071-13.082l-.774.1-.064-.777A100.786,100.786,0,0,1,51.355,793.154Z" fill="#f6f6f6"/>
        <path id="Path_309" data-name="Path 309" d="M51.338,809.845l.064.777.774-.1a6.626,6.626,0,0,1,2.071,13.082l-.764.148.178.758a100.426,100.426,0,0,0,5.172,15.871l.3.716.7-.327a6.626,6.626,0,0,1,6.019,11.8l-.678.378.4.663a101.3,101.3,0,0,0,9.809,13.5l.506.588.57-.528a6.626,6.626,0,0,1,9.359,9.369l-.529.568.587.508a100.419,100.419,0,0,0,13.5,9.822l.666.4.377-.682a6.625,6.625,0,0,1,11.8,6.013l-.329.707.719.3a100.555,100.555,0,0,0,15.878,5.141l.755.177.149-.762a6.626,6.626,0,0,1,13.08,2.072l-.092.771.772.065a100.668,100.668,0,0,0,16.69.017l.776-.063-.1-.774a6.626,6.626,0,0,1,13.081-2.072l.148.765.759-.179a100.584,100.584,0,0,0,15.863-5.184l.715-.3-.326-.7a6.625,6.625,0,0,1,11.794-6.019l.378.676.663-.4A101.593,101.593,0,0,0,217.1,877.6l.586-.506-.524-.569a6.625,6.625,0,0,1,9.374-9.352l.568.527.506-.586a100.36,100.36,0,0,0,9.83-13.489l.4-.665-.682-.378a6.626,6.626,0,0,1,6.005-11.8l.706.329.3-.718a100.688,100.688,0,0,0,5.138-15.878l.177-.754-.761-.15a6.626,6.626,0,0,1,2.083-13.079l.77.094.066-.774a100.567,100.567,0,0,0,.018-16.691l-.064-.778-.773.1a6.626,6.626,0,0,1-2.073-13.082l.764-.148-.178-.758a100.53,100.53,0,0,0-5.171-15.871l-.3-.715-.7.327a6.626,6.626,0,0,1-6.019-11.8l.679-.378-.4-.663a101.466,101.466,0,0,0-9.809-13.5l-.507-.588-.568.528a6.626,6.626,0,0,1-9.36-9.369l.528-.568-.587-.508a100.5,100.5,0,0,0-13.5-9.822l-.666-.4-.377.682a6.626,6.626,0,0,1-11.8-6.013l.33-.707-.718-.3a100.6,100.6,0,0,0-15.879-5.141l-.755-.177-.15.761a6.626,6.626,0,0,1-13.08-2.071l.094-.771-.773-.065a100.668,100.668,0,0,0-16.69-.017l-.776.063.1.774a6.626,6.626,0,0,1-13.081,2.072l-.149-.765-.757.179a100.4,100.4,0,0,0-15.865,5.184l-.714.3.326.7a6.626,6.626,0,0,1-11.795,6.02l-.378-.676-.662.4A101.558,101.558,0,0,0,85.9,725.4l-.587.506.526.569a6.626,6.626,0,0,1-9.374,9.353L75.9,735.3l-.507.586a100.4,100.4,0,0,0-9.83,13.489l-.4.665.682.378a6.626,6.626,0,0,1-6.007,11.8l-.7-.329-.3.718a100.938,100.938,0,0,0-5.138,15.878l-.176.754.76.15a6.626,6.626,0,0,1-2.083,13.079l-.77-.095-.066.774A100.786,100.786,0,0,0,51.338,809.845Zm1.162-8.238c0-2.524.1-5.073.291-7.586q.108,0,.219,0a8.125,8.125,0,0,0,2.313-15.911,99.319,99.319,0,0,1,4.6-14.231,8.11,8.11,0,0,0,9.953-3.971,8.1,8.1,0,0,0-2.645-10.39,98.915,98.915,0,0,1,8.81-12.087,8.124,8.124,0,0,0,11.4-11.376,99.867,99.867,0,0,1,12.1-8.793,8.125,8.125,0,0,0,14.345-7.323,99.017,99.017,0,0,1,14.215-4.647,8.128,8.128,0,0,0,7.773,5.827,8.391,8.391,0,0,0,1.292-.1A8.081,8.081,0,0,0,144.025,703c0-.076,0-.152,0-.229,2.441-.181,4.916-.274,7.372-.274,2.527,0,5.075.1,7.584.29,0,.073,0,.146,0,.218a8.083,8.083,0,0,0,6.856,8.012,8.338,8.338,0,0,0,1.288.1,8.134,8.134,0,0,0,7.771-5.81,99,99,0,0,1,14.229,4.606,8.125,8.125,0,0,0,14.359,7.315,99.207,99.207,0,0,1,12.093,8.8,8.125,8.125,0,0,0,11.386,11.4,99.826,99.826,0,0,1,8.791,12.1,8.125,8.125,0,0,0,7.323,14.351A98.915,98.915,0,0,1,247.7,778.1a8.132,8.132,0,0,0-5.83,7.769,8.326,8.326,0,0,0,.1,1.3,8.08,8.08,0,0,0,8.008,6.855c.08,0,.16,0,.241,0,.183,2.442.275,4.919.275,7.376,0,2.525-.1,5.072-.291,7.582-.073,0-.147,0-.219,0a8.08,8.08,0,0,0-8.013,6.855,8.25,8.25,0,0,0-.1,1.292,8.136,8.136,0,0,0,5.8,7.764,99.1,99.1,0,0,1-4.6,14.231,8.1,8.1,0,0,0-9.952,3.971,8.1,8.1,0,0,0,2.644,10.39,98.824,98.824,0,0,1-8.809,12.087,8.124,8.124,0,0,0-11.4,11.375,99.884,99.884,0,0,1-12.1,8.794,8.124,8.124,0,0,0-14.345,7.323,99.165,99.165,0,0,1-14.216,4.647,8.127,8.127,0,0,0-7.774-5.827,8.379,8.379,0,0,0-1.291.1,8.084,8.084,0,0,0-6.855,8.006c0,.08,0,.161,0,.241-2.44.181-4.917.274-7.372.274-2.526,0-5.074-.1-7.585-.29,0-.073,0-.146,0-.218a8.082,8.082,0,0,0-6.855-8.013,8.33,8.33,0,0,0-1.288-.1,8.137,8.137,0,0,0-7.771,5.811,98.948,98.948,0,0,1-14.228-4.606,8.112,8.112,0,0,0-3.97-9.961,8.2,8.2,0,0,0-3.7-.893,8.119,8.119,0,0,0-6.689,3.538,99.223,99.223,0,0,1-12.093-8.8,8.124,8.124,0,0,0-11.384-11.4,99.727,99.727,0,0,1-8.792-12.1,8.124,8.124,0,0,0-7.323-14.351,98.987,98.987,0,0,1-4.635-14.22,8.127,8.127,0,0,0-2.28-15.922c-.08,0-.161,0-.241,0C52.592,806.54,52.5,804.064,52.5,801.607Z" fill="#2f9bff"/>
        <g id="Group_112" data-name="Group 112">
          <circle id="Ellipse_232" data-name="Ellipse 232" cx="25.104" cy="25.104" r="25.104" transform="translate(126.396 776.396)" fill="none" stroke="#2f9bff" stroke-miterlimit="10" stroke-width="1.5"/>
          <circle id="Ellipse_233" data-name="Ellipse 233" cx="11.324" cy="11.324" r="11.324" transform="translate(140.176 790.176)" fill="none" stroke="#2f9bff" stroke-miterlimit="10" stroke-width="1.5"/>
        </g>
      </g>
      <g id="Group_114" data-name="Group 114">
        <circle id="Ellipse_234" data-name="Ellipse 234" cx="42.5" cy="42.5" r="42.5" transform="translate(260.913 696.758) rotate(-64.697)" fill="#f6f6f6"/>
        <circle id="Ellipse_235" data-name="Ellipse 235" cx="9.5" cy="9.5" r="9.5" transform="translate(308 667)" fill="#f6f6f6" stroke="#2f9bff" stroke-miterlimit="10" stroke-width="1.5"/>
        <circle id="Ellipse_236" data-name="Ellipse 236" cx="5.5" cy="5.5" r="5.5" transform="translate(278.55 655.186)" fill="#f6f6f6"/>
        <path id="Path_310" data-name="Path 310" d="M279.077,658.336a42.5,42.5,0,1,0,56.587-20.259A42.5,42.5,0,0,0,279.077,658.336Zm1.356.641a41,41,0,1,1,19.543,54.59A41.047,41.047,0,0,1,280.433,658.977Z" fill="#2f9bff"/>
        <path id="Path_311" data-name="Path 311" d="M279.077,658.336a5.5,5.5,0,1,0,7.323-2.622A5.5,5.5,0,0,0,279.077,658.336Zm1.356.641a4,4,0,1,1,1.907,5.325A4,4,0,0,1,280.433,658.977Z" fill="#2f9bff"/>
      </g>
    </g>
    <g id="Layer_9" data-name="Layer 9">
      <g id="Group_120" data-name="Group 120">
        <g id="Group_116" data-name="Group 116">
          <path id="Path_312" data-name="Path 312" d="M366.172,707.879l.855-1.808,78.655,37.18,4.7-9.944-78.655-37.181.854-1.808-11.9-5.623a10.5,10.5,0,1,0-6.41,13.561ZM352.98,687.818a5,5,0,1,1-6.657,2.383A5,5,0,0,1,352.98,687.818Z" fill="#f6f6f6"/>
          <line id="Line_20" data-name="Line 20" x1="71.514" y1="33.802" transform="translate(372.695 704.375)" fill="none" stroke="#2f9bff" stroke-miterlimit="10" stroke-width="1.5"/>
          <line id="Line_21" data-name="Line 21" x1="4.981" y1="2.354" transform="translate(360.745 699.987)" fill="none" stroke="#2f9bff" stroke-miterlimit="10" stroke-width="1.5"/>
          <g id="Group_115" data-name="Group 115">
            <path id="Path_313" data-name="Path 313" d="M348.493,697.31a5.5,5.5,0,1,0-2.622-7.322A5.5,5.5,0,0,0,348.493,697.31Zm.641-1.356a4,4,0,1,1,5.326-1.907A4,4,0,0,1,349.134,695.954Z" fill="#2f9bff"/>
          </g>
          <path id="Path_314" data-name="Path 314" d="M346.357,701.831a10.458,10.458,0,0,0,7.919.425l11.9,5.623.855-1.808,78.655,37.18,4.7-9.944-78.655-37.181.854-1.808-11.9-5.623a10.5,10.5,0,1,0-14.329,13.136Zm21.311,2.884,3.419-7.232,77.3,36.539-3.419,7.232Zm-11.605-3.273a10.466,10.466,0,0,0,5.129-10.849l9.393,4.44-5.128,10.849ZM347,700.475a9,9,0,1,1,11.983-4.291A9.009,9.009,0,0,1,347,700.475Z" fill="#2f9bff"/>
        </g>
        <g id="Group_119" data-name="Group 119">
          <path id="Path_315" data-name="Path 315" d="M471.529,738.878l-93.571-44.231-8.12,17.177,93.572,44.232a9.5,9.5,0,1,0,8.119-17.178Zm.46,10.726a5,5,0,1,1-2.383-6.656A5,5,0,0,1,471.989,749.6Z" fill="#f6f6f6"/>
          <line id="Line_22" data-name="Line 22" x1="74.192" y1="35.066" transform="translate(378.41 710.753)" fill="none" stroke="#2f9bff" stroke-miterlimit="10" stroke-width="1.5"/>
          <g id="Group_117" data-name="Group 117">
            <rect id="Rectangle_34980" data-name="Rectangle 34980" width="17" height="1.5" transform="translate(454.346 750.665) rotate(-64.703)" fill="#2f9bff"/>
          </g>
          <g id="Group_118" data-name="Group 118">
            <path id="Path_316" data-name="Path 316" d="M465.12,752.44a5.5,5.5,0,1,0-2.622-7.323A5.5,5.5,0,0,0,465.12,752.44Zm.641-1.357a4,4,0,1,1,5.326-1.906A4,4,0,0,1,465.761,751.083Z" fill="#2f9bff"/>
          </g>
          <path id="Path_317" data-name="Path 317" d="M369.838,711.824l93.572,44.232a9.5,9.5,0,1,0,8.119-17.178l-93.571-44.231Zm2-.715,6.838-14.465,92.215,43.59a8,8,0,1,1-6.837,14.466Z" fill="#2f9bff"/>
        </g>
      </g>
    </g>
  </g>
</svg>
