<svg xmlns="http://www.w3.org/2000/svg" width="281" height="50.318" viewBox="0 0 281 50.318">
  <g id="Group_988" data-name="Group 988" transform="translate(-2709.79 -8333.657)">
    <path id="Path_1075" data-name="Path 1075" d="M2717.282,8373.489a12.384,12.384,0,0,1-5.372-4.077,11.126,11.126,0,0,1-2.12-6.5h10.026a4.85,4.85,0,0,0,1.487,3.276,4.775,4.775,0,0,0,3.305,1.131,5.178,5.178,0,0,0,3.306-.963,3.228,3.228,0,0,0,1.212-2.674,3.165,3.165,0,0,0-.963-2.368,7.822,7.822,0,0,0-2.37-1.543,38.429,38.429,0,0,0-3.994-1.377,43.329,43.329,0,0,1-6.115-2.313,11.28,11.28,0,0,1-4.077-3.416,9.513,9.513,0,0,1-1.708-5.895,10.133,10.133,0,0,1,3.911-8.456q3.911-3.059,10.192-3.059,6.389,0,10.3,3.059a10.949,10.949,0,0,1,4.187,8.511H2728.3a3.994,3.994,0,0,0-1.377-2.947,4.854,4.854,0,0,0-3.25-1.074,4.046,4.046,0,0,0-2.754.909,3.279,3.279,0,0,0-1.047,2.617,3.241,3.241,0,0,0,1.763,2.919,28.76,28.76,0,0,0,5.509,2.259,51.038,51.038,0,0,1,6.088,2.425,11.613,11.613,0,0,1,4.049,3.359,9,9,0,0,1,1.708,5.675,11.126,11.126,0,0,1-1.681,6,11.771,11.771,0,0,1-4.875,4.3,16.688,16.688,0,0,1-7.547,1.6A19.877,19.877,0,0,1,2717.282,8373.489Z" transform="translate(0 -0.244)" fill="#fff"/>
    <path id="Path_1076" data-name="Path 1076" d="M2821.824,8345.266v30.741h-9.42v-4.187a10.341,10.341,0,0,1-3.883,3.279,11.87,11.87,0,0,1-5.427,1.238,12.16,12.16,0,0,1-6.225-1.569,10.579,10.579,0,0,1-4.187-4.546,15.456,15.456,0,0,1-1.488-7v-17.961h9.365v16.693a6.746,6.746,0,0,0,1.6,4.793,5.6,5.6,0,0,0,4.3,1.707,5.666,5.666,0,0,0,4.352-1.707,6.745,6.745,0,0,0,1.6-4.793v-16.693Z" transform="translate(-12.411 -1.77)" fill="#fff"/>
    <path id="Path_1077" data-name="Path 1077" d="M2896.015,8346.336a10.67,10.67,0,0,1,5.509-1.46v9.971h-2.589a7.932,7.932,0,0,0-5.289,1.517q-1.763,1.515-1.763,5.315v14.268h-9.42v-30.739h9.42v5.122A12.431,12.431,0,0,1,2896.015,8346.336Z" transform="translate(-26.325 -1.71)" fill="#fff"/>
    <path id="Path_1078" data-name="Path 1078" d="M2939.372,8362.816h-21.32a6.4,6.4,0,0,0,1.845,4.38,5.639,5.639,0,0,0,3.993,1.516,4.954,4.954,0,0,0,4.9-2.976h10.026a13.782,13.782,0,0,1-2.782,5.454,13.927,13.927,0,0,1-5.041,3.8,16.185,16.185,0,0,1-6.776,1.378,16.475,16.475,0,0,1-8.043-1.928,13.713,13.713,0,0,1-5.509-5.509,17.007,17.007,0,0,1-1.984-8.374,17.21,17.21,0,0,1,1.956-8.374,13.533,13.533,0,0,1,5.482-5.508,17.845,17.845,0,0,1,16.03-.057,13.446,13.446,0,0,1,5.427,5.345,16.219,16.219,0,0,1,1.956,8.1A24.218,24.218,0,0,1,2939.372,8362.816Zm-9.476-5.234a4.846,4.846,0,0,0-1.653-3.855,6.088,6.088,0,0,0-4.132-1.433,5.967,5.967,0,0,0-3.994,1.378,6.106,6.106,0,0,0-2.01,3.91Z" transform="translate(-30.323 -1.691)" fill="#fff"/>
    <rect id="Rectangle_34095" data-name="Rectangle 34095" width="5.256" height="42.932" transform="translate(2990.79 8368.979) rotate(90)" fill="#fff"/>
    <g id="Group_986" data-name="Group 986" transform="translate(2742.658 8343.056)">
      <path id="Path_1079" data-name="Path 1079" d="M2764.331,8344.746a15.762,15.762,0,1,0,15.761,15.762A15.762,15.762,0,0,0,2764.331,8344.746Zm0,22.624a6.862,6.862,0,1,1,6.861-6.862A6.863,6.863,0,0,1,2764.331,8367.37Z" transform="translate(-2748.57 -8344.746)" fill="#54e9dc"/>
      <rect id="Rectangle_34096" data-name="Rectangle 34096" width="9.398" height="9.398" transform="translate(24.033 31.521)" fill="#54e9dc"/>
    </g>
    <g id="Group_987" data-name="Group 987" transform="translate(2913.226 8333.657)">
      <path id="Path_1080" data-name="Path 1080" d="M2965.581,8376.27a15.762,15.762,0,1,1,15.761-15.762A15.761,15.761,0,0,1,2965.581,8376.27Zm0-22.623a6.862,6.862,0,1,0,6.862,6.861A6.862,6.862,0,0,0,2965.581,8353.646Z" transform="translate(-2949.82 -8335.348)" fill="#54e9dc"/>
      <rect id="Rectangle_34097" data-name="Rectangle 34097" width="9.398" height="9.398" transform="translate(24.033)" fill="#54e9dc"/>
    </g>
    <path id="Path_1081" data-name="Path 1081" d="M2857.2,8345.139v1.971a13.668,13.668,0,0,0-8.1-2.676c-8.022,0-14.525,7.057-14.525,15.762s6.5,15.76,14.525,15.76a13.667,13.667,0,0,0,8.1-2.675v2.625h9.42v-30.767Zm-6.862,21.918a6.862,6.862,0,1,1,6.862-6.862v0A6.862,6.862,0,0,1,2850.336,8367.057Z" transform="translate(-19.024 -1.643)" fill="#fff"/>
  </g>
</svg>
